# AST/ASF file generated using VICON BodyLanguage
# -----------------------------------------------
:version 1.10
:name VICON
:units
  mass 1.0
  length 0.45
  angle deg
:documentation
   .ast/.asf automatically generated from VICON data using
   VICON BodyBuilder and BodyLanguage model FoxedUp or BRILLIANT.MOD
:root
   order TX TY TZ RX RY RZ
   axis XYZ
   position 0 0 0  
   orientation 0 0 0 
:bonedata
  begin
     id 1 
     name lhipjoint
     direction 0.624716 -0.669793 0.401383 
     length 2.38238 
     axis 0 0 0  XYZ
  end
  begin
     id 2 
     name lfemur
     direction 0.34202 -0.939693 0  
     length 6.4574  
     axis 0 0 20  XYZ
    dof rx ry rz
    limits (-160.0 20.0)
           (-70.0 70.0)
           (-60.0 70.0)
  end
  begin
     id 3 
     name ltibia
     direction 0.34202 -0.939693 0   
     length 7.68739   
     axis 0 0 20   XYZ
    dof rx
    limits (-10.0 170.0)
  end
  begin
     id 4 
     name lfoot
     direction 0.0681309 -0.187188 0.979959   
     length 2.46615   
     axis -90 7.62852e-016 20   XYZ
    dof rx rz
    limits (-45.0 90.0)
           (-70.0 20.0)
  end
  begin
     id 5 
     name ltoes
     direction 1.53566e-011 -4.21819e-011 1   
     length 1.2376   
     axis -90 7.62852e-016 20   XYZ
    dof rx
    limits (-90.0 20.0)
  end
  begin
     id 6 
     name rhipjoint
     direction -0.644473 -0.655875 0.393043   
     length 2.43293  
     axis 0 0 0  XYZ 
  end
  begin
     id 7 
     name rfemur
     direction -0.34202 -0.939693 0   
     length 6.7025   
     axis 0 0 -20   XYZ
    dof rx ry rz
    limits (-160.0 20.0)
           (-70.0 70.0)
           (-70.0 60.0)
  end
  begin
     id 8 
     name rtibia
     direction -0.34202 -0.939693 0   
     length 7.80547   
     axis 0 0 -20   XYZ
    dof rx
    limits (-10.0 170.0)
 end
 begin
     id 9 
     name rfoot
     direction -0.0756734 -0.207911 0.975216   
     length 2.40315  
     axis -90 -7.62852e-016 -20   XYZ
    dof rx rz
    limits (-45.0 90.0)
           (-20.0 70.0)
  end
  begin
     id 10 
     name rtoes
     direction -1.5353e-011 -4.21879e-011 1   
     length 1.20477   
     axis -90 -7.62852e-016 -20   XYZ
    dof rx
    limits (-90.0 20.0)
  end
  begin
     id 11 
     name lowerback
     direction 0.0160353 0.987463 -0.157037   
     length 2.18572   
     axis 0 0 0   XYZ
    dof rx ry rz
    limits (-20.0 45.0)
           (-30.0 30.0)
           (-30.0 30.0)
  end
  begin
     id 12 
     name upperback
     direction -0.00499661 0.999756 0.0215076   
     length 2.18016   
     axis 0 0 0   XYZ
    dof rx ry rz
    limits (-20.0 45.0)
           (-30.0 30.0)
           (-30.0 30.0)
  end
  begin
     id 13 
     name thorax
     direction -0.00921346 0.995333 0.0960619   
     length 2.24923   
     axis 0 0 0   XYZ
    dof rx ry rz
    limits (-20.0 45.0)
           (-30.0 30.0)
           (-30.0 30.0)
  end
  begin
     id 14 
     name lowerneck
     direction 0.0274184 0.991181 0.12965   
     length 1.70911   
     axis 0 0 0   XYZ
    dof rx ry rz
    limits (-20.0 45.0)
           (-30.0 30.0)
           (-30.0 30.0)
  end
  begin
     id 15 
     name upperneck
     direction 0.0015627 0.999959 -0.00893559   
     length 1.69312   
     axis 0 0 0   XYZ
    dof rx ry rz
    limits (-20.0 45.0)
           (-30.0 30.0)
           (-30.0 30.0)
  end
  begin
     id 16
     name head
     direction -0.00230242 0.999856 -0.0168327  
     length 1.80241  
     axis 0 0 0   XYZ
    dof rx ry rz
    limits (-20.0 45.0)
           (-30.0 30.0)
           (-30.0 30.0)
  end
  begin
     id 17 
     name lclavicle
     direction 0.955523 0.290741 -0.0494489  
     length 3.84275  
     axis 0 0 0   XYZ
    dof ry rz
    limits (-20.0 10.0)
           (0.0 20.0)
  end
  begin
     id 18 
     name lhumerus
     direction 1 -4.48967e-011 -3.18382e-028   
     length 5.17714   
     axis 180 -30 -90   XYZ
    dof rx ry rz
    limits (-60.0 90.0)
           (-90.0 90.0)
           (-90.0 90.0)
  end
  begin
     id 19
     name lradius
     direction 1 -4.48968e-011 -2.22911e-027   
     length 3.43679   
     axis 180 -30 -90   XYZ
    dof rx
    limits (-10.0 170.0)
  end
  begin
     id 20
     name lwrist
     direction 1 -4.48951e-011 -6.32245e-027   
     length 1.7184   
     axis 3.57107e-015 90 90   XYZ
    dof ry
    limits (-180.0 0.0)
 end
  begin
     id 21 
     name lhand
     direction 1 -4.48924e-011 -1.26431e-026   
     length 0.573117   
     axis 8.06912e-015 90 90   XYZ
    dof rx rz
    limits (-90.0 90.0)
           (-45.0 45.0)
  end
  begin
     id 22 
     name lfingers
     direction 1 -4.49001e-011 -2.52965e-026   
     length 0.462062   
     axis 1.61381e-014 90 90   XYZ
    dof rx
    limits (0.0 90.0)
  end
  begin
     id 23
     name lthumb
     direction 0.707107 -6.35008e-011 0.707107   
     length 0.663431   
     axis -90 45 -1.62303e-014   XYZ
    dof rx rz
    limits (-45.0 45.0)
           (-45.0 45.0)
  end
  begin
     id 24 
     name rclavicle
     direction -0.963917 0.256881 -0.0698287   
     length 3.73057  
     axis 0 0 0   XYZ 
    dof ry rz
    limits (-10.0 20.0)
           (-20.0 0.0)
  end
  begin
     id 25 
     name rhumerus
     direction -1 -4.48962e-011 -2.73982e-027  
     length 5.23908   
     axis 180 30 90   XYZ
    dof rx ry rz
    limits (-90.0 60.0)
           (-90.0 90.0)
           (-90.0 90.0)
  end
  begin
     id 26 
     name rradius
     direction -1 -4.48968e-011 -4.33218e-027   
     length 3.46485   
     axis 180 30 90   XYZ
    dof rx
    limits (-10.0 170.0)
  end
  begin
     id 27 
     name rwrist
     direction -1 -4.48989e-011 -6.32372e-027   
     length 1.73243   
     axis 3.57107e-015 -90 -90   XYZ
    dof ry
    limits (-180.0 0.0)
  end
  begin
     id 28
     name rhand
     direction -1 -4.48948e-011 -1.26448e-026   
     length 0.608752   
     axis 8.06912e-015 -90 -90   XYZ
    dof rx rz
    limits (-90.0 90.0)
           (-45.0 45.0)
  end
  begin
     id 29
     name rfingers
     direction -1 -4.48962e-011 -2.52913e-026   
     length 0.490792   
     axis 1.61381e-014 -90 -90   XYZ
    dof rx
    limits (0.0 90.0)
  end
  begin
     id 30
     name rthumb
     direction -0.707107 -6.34878e-011 0.707107   
     length 0.704682   
     axis -90 -45 1.62303e-014   XYZ
    dof rx rz
    limits (-45.0 45.0)
           (-45.0 45.0)
  end
:hierarchy
  begin
    root lhipjoint rhipjoint lowerback
    lhipjoint lfemur
    lfemur ltibia
    ltibia lfoot
    lfoot ltoes
    rhipjoint rfemur
    rfemur rtibia
    rtibia rfoot
    rfoot rtoes
    lowerback upperback
    upperback thorax
    thorax lowerneck lclavicle rclavicle
    lowerneck upperneck
    upperneck head
    lclavicle lhumerus
    lhumerus lradius
    lradius lwrist
    lwrist lhand lthumb
    lhand lfingers
    rclavicle rhumerus
    rhumerus rradius
    rradius rwrist
    rwrist rhand rthumb
    rhand rfingers
  end

#!OML:ASF G:\JayActor3\Patient Classification 1\Patient 1\Session 6\male.ASF
:FULLY-SPECIFIED
:DEGREES
271
root 50.6491 15.7416 -25.5593 10.8548 -69.3025 -13.5829
lowerback -0.36093 -0.467077 5.28081
upperback 3.30646 -0.846041 1.64904
thorax 3.56891 -0.31268 -1.28529
lowerneck -4.27521 0.707902 2.59503
upperneck 7.12059 0.793857 -0.753772
head 3.04047 0.42752 -0.664546
rclavicle -4.47266e-016 -3.77691e-015
rhumerus -31.0938 -12.7004 -82.6096
rradius 26.9893
rwrist 3.32527
rhand -19.6315 -5.2757
rfingers 7.12502
rthumb 6.69552 -35.1498
lclavicle -4.47266e-016 -3.77691e-015
lhumerus -30.7213 9.76388 83.5278
lradius 23.7261
lwrist 17.2982
lhand -16.8523 10.396
lfingers 7.12502
lthumb 9.37782 40.1673
rfemur -10.4549 1.20147 26.9318
rtibia 35.0149
rfoot -25.3049 -17.3831
rtoes 2.20908
lfemur -5.60593 9.42119 -15.1173
ltibia 27.4422
lfoot -19.4195 9.26696
ltoes -0.731268
272
root 50.65 15.7412 -25.5554 10.8904 -69.3223 -13.6293
lowerback -0.369243 -0.466779 5.26502
upperback 3.30286 -0.845347 1.64394
thorax 3.56994 -0.312665 -1.2818
lowerneck -4.3216 0.711595 2.58729
upperneck 7.19814 0.796547 -0.741577
head 3.07569 0.429305 -0.659347
rclavicle 5.63927e-014 2.38542e-015
rhumerus -31.1006 -12.6775 -82.6133
rradius 26.9684
rwrist 3.31425
rhand -19.6446 -5.28585
rfingers 7.12502
rthumb 6.68287 -35.1604
lclavicle 5.63927e-014 2.38542e-015
lhumerus -30.7373 9.74935 83.5316
lradius 23.7326
lwrist 17.292
lhand -16.8441 10.3262
lfingers 7.12502
lthumb 9.38578 40.0972
rfemur -10.4419 1.22576 26.932
rtibia 35.0116
rfoot -25.3008 -17.388
rtoes 2.19338
lfemur -5.59645 9.44265 -15.115
ltibia 27.455
lfoot -19.4362 9.26717
ltoes -0.737276
273
root 50.6507 15.7407 -25.5516 10.9284 -69.3391 -13.679
lowerback -0.374164 -0.461564 5.25905
upperback 3.29258 -0.837351 1.63139
thorax 3.56234 -0.308809 -1.29119
lowerneck -4.34744 0.713933 2.60254
upperneck 7.26744 0.796951 -0.738541
head 3.10446 0.430212 -0.66121
rclavicle -2.2736e-014 4.47266e-015
rhumerus -31.1266 -12.6786 -82.6184
rradius 26.9518
rwrist 3.30731
rhand -19.6538 -5.30098
rfingers 7.12502
rthumb 6.67405 -35.1758
lclavicle -2.2736e-014 4.47266e-015
lhumerus -30.7963 9.65774 83.5503
lradius 23.8202
lwrist 17.3461
lhand -16.8408 10.3028
lfingers 7.12502
lthumb 9.38899 40.0737
rfemur -10.427 1.24437 26.9341
rtibia 35.0085
rfoot -25.2976 -17.389
rtoes 2.18092
lfemur -5.58624 9.46905 -15.1093
ltibia 27.4683
lfoot -19.4512 9.265
ltoes -0.760717
274
root 50.6514 15.7402 -25.5477 10.957 -69.3523 -13.7192
lowerback -0.375216 -0.45357 5.25927
upperback 3.27536 -0.82476 1.61112
thorax 3.54544 -0.302584 -1.31176
lowerneck -4.35788 0.71694 2.63461
upperneck 7.33229 0.797799 -0.741139
head 3.12901 0.431577 -0.667827
rclavicle -1.61513e-016 -1.54058e-014
rhumerus -31.1684 -12.696 -82.626
rradius 26.936
rwrist 3.30179
rhand -19.6664 -5.30744
rfingers 7.12502
rthumb 6.66185 -35.1827
lclavicle -1.61513e-016 -1.54058e-014
lhumerus -30.9053 9.51231 83.5748
lradius 23.9941
lwrist 17.4422
lhand -16.8402 10.3461
lfingers 7.12502
lthumb 9.38953 40.1169
rfemur -10.4113 1.25473 26.9324
rtibia 35.0068
rfoot -25.2929 -17.3846
rtoes 2.16397
lfemur -5.5755 9.49696 -15.1059
ltibia 27.4807
lfoot -19.4635 9.26115
ltoes -0.798208
275
root 50.6518 15.7396 -25.5439 10.9762 -69.3638 -13.7488
lowerback -0.376059 -0.446057 5.26113
upperback 3.2536 -0.812387 1.58694
thorax 3.52362 -0.296485 -1.33728
lowerneck -4.35675 0.721207 2.6751
upperneck 7.39788 0.80039 -0.749539
head 3.1518 0.433828 -0.677746
rclavicle 2.29099e-014 -1.28216e-014
rhumerus -31.2219 -12.7171 -82.6365
rradius 26.9274
rwrist 3.29685
rhand -19.6731 -5.31991
rfingers 7.12502
rthumb 6.65541 -35.1953
lclavicle 2.29099e-014 -1.28216e-014
lhumerus -31.0587 9.33003 83.6057
lradius 24.2447
lwrist 17.5722
lhand -16.8479 10.4568
lfingers 7.12502
lthumb 9.38208 40.228
rfemur -10.3962 1.25727 26.9257
rtibia 35.0069
rfoot -25.2884 -17.3725
rtoes 2.15148
lfemur -5.56447 9.52513 -15.1065
ltibia 27.4919
lfoot -19.4738 9.25777
ltoes -0.847896
276
root 50.6524 15.739 -25.5399 10.9974 -69.3767 -13.7792
lowerback -0.375754 -0.441205 5.26597
upperback 3.23158 -0.803628 1.56409
thorax 3.50067 -0.292171 -1.3632
lowerneck -4.36443 0.72719 2.70985
upperneck 7.48164 0.805193 -0.756905
head 3.18252 0.437118 -0.686297
rclavicle 1.82633e-014 -2.69353e-014
rhumerus -31.2673 -12.7196 -82.6521
rradius 26.9157
rwrist 3.28877
rhand -19.6788 -5.33838
rfingers 7.12502
rthumb 6.64987 -35.214
lclavicle 1.82633e-014 -2.69353e-014
lhumerus -31.2278 9.151 83.6383
lradius 24.5305
lwrist 17.7098
lhand -16.8571 10.6088
lfingers 7.12502
lthumb 9.37327 40.3804
rfemur -10.3841 1.25485 26.9172
rtibia 35.0092
rfoot -25.2759 -17.3599
rtoes 2.11462
lfemur -5.55388 9.55278 -15.109
ltibia 27.5018
lfoot -19.4815 9.26173
ltoes -0.908628
277
root 50.6528 15.7385 -25.5358 11.0216 -69.3939 -13.8103
lowerback -0.377582 -0.441193 5.26794
upperback 3.2142 -0.801919 1.54605
thorax 3.48342 -0.291399 -1.38282
lowerneck -4.39116 0.73999 2.73419
upperneck 7.57482 0.819612 -0.76755
head 3.22032 0.444824 -0.693732
rclavicle -2.61526e-015 2.68359e-015
rhumerus -31.2973 -12.6878 -82.6754
rradius 26.9084
rwrist 3.27476
rhand -19.6763 -5.367
rfingers 7.12502
rthumb 6.65228 -35.2425
lclavicle -2.61526e-015 2.68359e-015
lhumerus -31.3741 9.02712 83.6624
lradius 24.7927
lwrist 17.816
lhand -16.8668 10.7653
lfingers 7.12502
lthumb 9.36386 40.5373
rfemur -10.3762 1.25371 26.9072
rtibia 35.0127
rfoot -25.2621 -17.3412
rtoes 2.08952
lfemur -5.54579 9.57951 -15.1139
ltibia 27.5121
lfoot -19.4897 9.27198
ltoes -0.97273
278
root 50.6532 15.7379 -25.5316 11.0526 -69.4211 -13.849
lowerback -0.380043 -0.442516 5.26922
upperback 3.20308 -0.802646 1.53318
thorax 3.47297 -0.291774 -1.39682
lowerneck -4.43915 0.758827 2.7427
upperneck 7.68029 0.842274 -0.773219
head 3.26647 0.456406 -0.69645
rclavicle 3.98315e-014 1.6201e-014
rhumerus -31.3083 -12.6199 -82.7055
rradius 26.8995
rwrist 3.25146
rhand -19.6727 -5.39446
rfingers 7.12502
rthumb 6.65578 -35.2699
lclavicle 3.98315e-014 1.6201e-014
lhumerus -31.4726 8.95849 83.6796
lradius 24.9853
lwrist 17.8832
lhand -16.8764 10.8852
lfingers 7.12502
lthumb 9.35459 40.6576
rfemur -10.3692 1.25663 26.8969
rtibia 35.0171
rfoot -25.2426 -17.3204
rtoes 2.05698
lfemur -5.53671 9.60637 -15.1199
ltibia 27.5248
lfoot -19.5023 9.28969
ltoes -1.0277
279
root 50.6535 15.7373 -25.5273 11.0955 -69.4556 -13.8986
lowerback -0.389648 -0.44223 5.27076
upperback 3.19809 -0.802251 1.5238
thorax 3.4731 -0.291361 -1.40742
lowerneck -4.4934 0.78496 2.74555
upperneck 7.77951 0.874962 -0.777392
head 3.3119 0.472839 -0.697217
rclavicle 2.88548e-014 1.07344e-014
rhumerus -31.3068 -12.5313 -82.7412
rradius 26.8953
rwrist 3.21931
rhand -19.6629 -5.4013
rfingers 7.12502
rthumb 6.66522 -35.2764
lclavicle 2.88548e-014 1.07344e-014
lhumerus -31.5148 8.93265 83.6912
lradius 25.0961
lwrist 17.9151
lhand -16.8784 10.9431
lfingers 7.12502
lthumb 9.35268 40.7156
rfemur -10.3645 1.2626 26.8885
rtibia 35.0214
rfoot -25.2229 -17.2947
rtoes 2.03388
lfemur -5.52854 9.63357 -15.1243
ltibia 27.5404
lfoot -19.525 9.30784
ltoes -1.0444
280
root 50.6539 15.7367 -25.5231 11.1462 -69.4975 -13.955
lowerback -0.401295 -0.433391 5.27678
upperback 3.19169 -0.790468 1.51127
thorax 3.47355 -0.28508 -1.42341
lowerneck -4.53726 0.806493 2.75521
upperneck 7.87926 0.900983 -0.779289
head 3.35552 0.486229 -0.698698
rclavicle -2.18228e-014 3.96575e-014
rhumerus -31.312 -12.4499 -82.7772
rradius 26.895
rwrist 3.18763
rhand -19.6477 -5.39359
rfingers 7.12502
rthumb 6.67994 -35.2682
lclavicle -2.18228e-014 3.96575e-014
lhumerus -31.5031 8.91993 83.6956
lradius 25.1085
lwrist 17.9114
lhand -16.8773 10.9526
lfingers 7.12502
lthumb 9.35373 40.7251
rfemur -10.3625 1.27363 26.8814
rtibia 35.0261
rfoot -25.2007 -17.2667
rtoes 2.01155
lfemur -5.52198 9.65974 -15.1283
ltibia 27.558
lfoot -19.5534 9.32793
ltoes -1.03526
281
root 50.6542 15.736 -25.5191 11.1934 -69.5374 -14.0058
lowerback -0.417809 -0.420064 5.27868
upperback 3.18491 -0.772792 1.49664
thorax 3.47673 -0.275863 -1.43912
lowerneck -4.56389 0.825886 2.78046
upperneck 7.9641 0.924178 -0.789553
head 3.39091 0.498303 -0.705736
rclavicle -7.67185e-015 1.39149e-014
rhumerus -31.323 -12.3785 -82.8136
rradius 26.901
rwrist 3.16363
rhand -19.6251 -5.38097
rfingers 7.12502
rthumb 6.70176 -35.2549
lclavicle -7.67185e-015 1.39149e-014
lhumerus -31.4797 8.8809 83.7074
lradius 25.1079
lwrist 17.916
lhand -16.8771 10.9579
lfingers 7.12502
lthumb 9.35393 40.7303
rfemur -10.3623 1.28992 26.8751
rtibia 35.0312
rfoot -25.1849 -17.2435
rtoes 1.99729
lfemur -5.51862 9.68816 -15.1325
ltibia 27.5763
lfoot -19.5835 9.34117
ltoes -1.01686
282
root 50.6547 15.7355 -25.5154 11.2298 -69.577 -14.0419
lowerback -0.443966 -0.403577 5.27028
upperback 3.18019 -0.751394 1.48195
thorax 3.48782 -0.264857 -1.44912
lowerneck -4.57961 0.843089 2.81128
upperneck 8.044 0.944413 -0.801262
head 3.42255 0.508998 -0.714346
rclavicle -2.13694e-015 7.25564e-015
rhumerus -31.3357 -12.3115 -82.8484
rradius 26.9134
rwrist 3.13994
rhand -19.5985 -5.36985
rfingers 7.12502
rthumb 6.72739 -35.243
lclavicle -2.13694e-015 7.25564e-015
lhumerus -31.448 8.83693 83.7232
lradius 25.1036
lwrist 17.9174
lhand -16.8677 10.9552
lfingers 7.12502
lthumb 9.363 40.7272
rfemur -10.3669 1.31126 26.8644
rtibia 35.0378
rfoot -25.1718 -17.2233
rtoes 1.98065
lfemur -5.51845 9.71204 -15.1428
ltibia 27.5933
lfoot -19.6147 9.35495
ltoes -0.980977
283
root 50.6552 15.735 -25.512 11.2491 -69.6104 -14.0614
lowerback -0.467741 -0.388268 5.25272
upperback 3.1749 -0.731106 1.46693
thorax 3.49695 -0.254705 -1.45434
lowerneck -4.58809 0.858089 2.8448
upperneck 8.12419 0.961699 -0.813826
head 3.45291 0.518273 -0.723849
rclavicle -1.61513e-016 2.16178e-014
rhumerus -31.3506 -12.2486 -82.883
rradius 26.9275
rwrist 3.12105
rhand -19.5739 -5.35972
rfingers 7.12502
rthumb 6.75118 -35.2321
lclavicle -1.61513e-016 2.16178e-014
lhumerus -31.4192 8.78717 83.7406
lradius 25.1075
lwrist 17.9204
lhand -16.8672 10.9962
lfingers 7.12502
lthumb 9.36347 40.7683
rfemur -10.3701 1.33347 26.8508
rtibia 35.0457
rfoot -25.1674 -17.2043
rtoes 1.97987
lfemur -5.51727 9.73333 -15.1561
ltibia 27.608
lfoot -19.6447 9.36324
ltoes -0.942791
284
root 50.656 15.7345 -25.5089 11.2562 -69.6402 -14.0693
lowerback -0.485656 -0.376856 5.22842
upperback 3.16976 -0.71552 1.45351
thorax 3.50267 -0.247205 -1.45426
lowerneck -4.60691 0.870782 2.86752
upperneck 8.22938 0.975293 -0.816438
head 3.49376 0.525847 -0.728408
rclavicle 1.67103e-014 -3.27995e-015
rhumerus -31.3623 -12.1805 -82.9192
rradius 26.9433
rwrist 3.10106
rhand -19.5548 -5.35926
rfingers 7.12502
rthumb 6.76957 -35.231
lclavicle 1.67103e-014 -3.27995e-015
lhumerus -31.3838 8.7469 83.76
lradius 25.1094
lwrist 17.9219
lhand -16.8689 11.0615
lfingers 7.12502
lthumb 9.36182 40.8336
rfemur -10.3736 1.35621 26.8348
rtibia 35.0554
rfoot -25.1652 -17.1906
rtoes 1.96956
lfemur -5.5153 9.75125 -15.1724
ltibia 27.62
lfoot -19.6706 9.37296
ltoes -0.908588
